<svg xmlns="http://www.w3.org/2000/svg" width="1400" height="630" viewBox="0 0 1400 630">
<rect width="100%" height="100%" fill="#FFFFFF"/>
<defs>
<marker id="ah-data" markerWidth="9" markerHeight="9" refX="8" refY="4.5" orient="auto" markerUnits="userSpaceOnUse"><path d="M0,0 L9,4.5 L0,9 z" fill="#1F3A93"/></marker>
<marker id="ah-bus" markerWidth="9" markerHeight="9" refX="8" refY="4.5" orient="auto" markerUnits="userSpaceOnUse"><path d="M0,0 L9,4.5 L0,9 z" fill="#1F3A93"/></marker>
<marker id="ah-ctrl" markerWidth="9" markerHeight="9" refX="8" refY="4.5" orient="auto" markerUnits="userSpaceOnUse"><path d="M0,0 L9,4.5 L0,9 z" fill="#C62828"/></marker>
<marker id="ah-ps" markerWidth="9" markerHeight="9" refX="8" refY="4.5" orient="auto" markerUnits="userSpaceOnUse"><path d="M0,0 L9,4.5 L0,9 z" fill="#E65100"/></marker>
<marker id="ah-mem" markerWidth="9" markerHeight="9" refX="8" refY="4.5" orient="auto" markerUnits="userSpaceOnUse"><path d="M0,0 L9,4.5 L0,9 z" fill="#8A6D00"/></marker>
<marker id="ah-rst" markerWidth="9" markerHeight="9" refX="8" refY="4.5" orient="auto" markerUnits="userSpaceOnUse"><path d="M0,0 L9,4.5 L0,9 z" fill="#6A1B9A"/></marker>
<marker id="ah-plain" markerWidth="9" markerHeight="9" refX="8" refY="4.5" orient="auto" markerUnits="userSpaceOnUse"><path d="M0,0 L9,4.5 L0,9 z" fill="#444444"/></marker>
<marker id="ah-fsm" markerWidth="9" markerHeight="9" refX="8" refY="4.5" orient="auto" markerUnits="userSpaceOnUse"><path d="M0,0 L9,4.5 L0,9 z" fill="#2E7D32"/></marker>
</defs>
<text font-family="Helvetica, Arial, sans-serif" font-size="16" fill="#111111" text-anchor="start"><tspan x="38.0" y="29.2" font-weight="bold">StimReadout — synthesizable measurement-readout stand-in for hardware-in-the-loop stim tests (StimReadout.sv)</tspan><tspan x="38.0" y="49.2">replays RECORDED measurements from BRAM back into a leaf ControlBoard; closes the mmio_out → readout → in_meas loop</tspan></text>
<rect x="60" y="90" width="420" height="420" rx="12.0" fill="#FAFAFA" stroke="#7A7A7A" stroke-width="1"/>
<text font-family="Helvetica, Arial, sans-serif" font-size="13" fill="#111111" text-anchor="start"><tspan x="68.0" y="106.3" font-weight="bold">Leaf ControlBoard  (FORWARD · INTERNAL)</tspan></text>
<rect x="90" y="160" width="160" height="50" rx="12.0" fill="#E6F4EA" stroke="#2E7D32" stroke-width="1"/>
<text font-family="Helvetica, Arial, sans-serif" font-size="11" fill="#111111" text-anchor="middle"><tspan x="170.0" y="188.6" font-weight="bold">BoardControl</tspan></text>
<rect x="90" y="250" width="200" height="80" rx="12.0" fill="#FFFFFF" stroke="#1A1A1A" stroke-width="1"/>
<text font-family="Helvetica, Arial, sans-serif" font-size="11" fill="#111111" text-anchor="middle"><tspan x="190.0" y="279.8" font-weight="bold">PhysicalMMIO  (P = 1)</tspan><tspan x="190.0" y="293.6">out_data = ROUND INDEX</tspan><tspan x="190.0" y="307.3">(sim CW type: entry = its index)</tspan></text>
<rect x="90" y="370" width="260" height="70" rx="12.0" fill="#FFFFFF" stroke="#1A1A1A" stroke-width="1"/>
<text font-family="Helvetica, Arial, sans-serif" font-size="11" fill="#111111" text-anchor="middle"><tspan x="220.0" y="401.7" font-weight="bold">DetectorConstructBlock</tspan><tspan x="220.0" y="415.4">in_meas / in_valid / in_meas_finish</tspan></text>
<rect x="300" y="115" width="160" height="36" rx="18.0" fill="#FFFFFF" stroke="#555555" stroke-width="1"/>
<text font-family="Helvetica, Arial, sans-serif" font-size="9" fill="#111111" text-anchor="middle"><tspan x="380.0" y="135.9">fwd_det / fwd_raw … → parent</tspan></text>
<rect x="600" y="90" width="760" height="420" rx="12.0" fill="#FAFAFA" stroke="#7A7A7A" stroke-width="1"/>
<text font-family="Helvetica, Arial, sans-serif" font-size="13" fill="#111111" text-anchor="start"><tspan x="608.0" y="106.3" font-weight="bold">StimReadout  #(M, SHOTS, DEPTH, MEAS_FILE, VALID_FILE)  — GLOBAL rst + cw_gen_finish, never board_reset</tspan></text>
<rect x="630" y="140" width="300" height="120" rx="0.0" fill="#EDEDED" stroke="#1A1A1A" stroke-width="1"/>
<text font-family="Helvetica, Arial, sans-serif" font-size="10" fill="#111111" text-anchor="middle"><tspan x="780.0" y="172.0">shot_q / base_q registers</tspan><tspan x="780.0" y="184.5">reset | cw_gen_finish : shot ← 0, base ← 0</tspan><tspan x="780.0" y="197.0">EV_ABORT (guarded shot+1 &lt; SHOTS):</tspan><tspan x="780.0" y="209.5">   shot ← shot+1, base ← (shot+1) × DEPTH</tspan><tspan x="780.0" y="222.0">(pointer moves in LOCKSTEP across all leaves —</tspan><tspan x="780.0" y="234.5"> the abort is global and in sync)</tspan></text>
<rect x="960" y="150" width="260" height="60" rx="12.0" fill="#F0EAFA" stroke="#5E35B1" stroke-width="1"/>
<text font-family="Helvetica, Arial, sans-serif" font-size="10" fill="#111111" text-anchor="middle"><tspan x="1090.0" y="170.8">addr = base_q + mmio_out_data</tspan><tspan x="1090.0" y="183.2">rom_addr = active ? addr : 0</tspan><tspan x="1090.0" y="195.8">active = mmio_out_valid &amp; ~rst</tspan></text>
<rect x="960" y="250" width="180" height="60" rx="0.0" fill="#FFF4D6" stroke="#B07D00" stroke-width="1"/>
<text font-family="Helvetica, Arial, sans-serif" font-size="10" fill="#111111" text-anchor="middle"><tspan x="1050.0" y="270.8" font-weight="bold">SyncROM  meas  (BRAM)</tspan><tspan x="1050.0" y="283.2">SHOTS × DEPTH rows × M bits</tspan><tspan x="1050.0" y="295.8">shot-major · sim_readout_meas.mem</tspan></text>
<rect x="1160" y="250" width="180" height="60" rx="0.0" fill="#FFF4D6" stroke="#B07D00" stroke-width="1"/>
<text font-family="Helvetica, Arial, sans-serif" font-size="10" fill="#111111" text-anchor="middle"><tspan x="1250.0" y="270.8" font-weight="bold">SyncROM  valid  (BRAM)</tspan><tspan x="1250.0" y="283.2">same layout</tspan><tspan x="1250.0" y="295.8">sim_readout_valid.mem</tspan></text>
<rect x="630" y="300" width="300" height="60" rx="0.0" fill="#EDEDED" stroke="#1A1A1A" stroke-width="1"/>
<text font-family="Helvetica, Arial, sans-serif" font-size="10" fill="#111111" text-anchor="middle"><tspan x="780.0" y="320.8">finish_q ← mmio_out_valid &amp; cw_gen_finish</tspan><tspan x="780.0" y="333.2">(aligned with the 1-cycle BRAM read)</tspan><tspan x="780.0" y="345.8">out_meas_finish = finish_q ? valid_data : 0</tspan></text>
<text font-family="Helvetica, Arial, sans-serif" font-size="10" fill="#111111" text-anchor="start"><tspan x="68.0" y="553.5">The ABORT that advances the readout is the SAME event that restarts the CW program in BoardControl / PhysicalMMIO, so a rejected shot is</tspan><tspan x="68.0" y="566.0">discarded everywhere on the same cycle. Multi-shot / multi-trial tests (test_control_board_stim, tb_ControlBoard) drive only the root's start / finish / gap_post_select.</tspan></text>
<polyline points="170.0,210.0 170.0,230.0 190.0,230.0 190.0,250.0" fill="none" stroke="#C62828" stroke-width="1.5" stroke-dasharray="6,4" marker-end="url(#ah-ctrl)"/>
<rect x="138.2" y="222.0" width="83.6" height="16.0" fill="#FFFFFF" fill-opacity="0.92"/>
<text font-family="Helvetica, Arial, sans-serif" font-size="10" fill="#C62828" text-anchor="middle"><tspan x="180.0" y="232.5">ev_* (relayed)</tspan></text>
<polyline points="324.0,370.0 324.0,300.0 380.0,300.0 380.0,151.0" fill="none" stroke="#1F3A93" stroke-width="2.5" marker-end="url(#ah-bus)"/>
<polyline points="250.0,185.0 440.0,185.0 440.0,188.0 630.0,188.0" fill="none" stroke="#C62828" stroke-width="1.5" stroke-dasharray="6,4" marker-end="url(#ah-ctrl)"/>
<rect x="363.1" y="178.5" width="153.8" height="16.0" fill="#FFFFFF" fill-opacity="0.92"/>
<text font-family="Helvetica, Arial, sans-serif" font-size="10" fill="#C62828" text-anchor="middle"><tspan x="440.0" y="189.0">ev_valid &amp; ev_type == ABORT</tspan></text>
<polyline points="290.0,290.0 945.0,290.0 945.0,180.0 960.0,180.0" fill="none" stroke="#C62828" stroke-width="1.5" stroke-dasharray="6,4" marker-end="url(#ah-ctrl)"/>
<rect x="559.9" y="282.0" width="240.2" height="16.0" fill="#FFFFFF" fill-opacity="0.92"/>
<text font-family="Helvetica, Arial, sans-serif" font-size="10" fill="#C62828" text-anchor="middle"><tspan x="680.0" y="292.5">mmio_out_data (round index), mmio_out_valid</tspan></text>
<polyline points="290.0,318.0 460.0,318.0 460.0,330.0 630.0,330.0" fill="none" stroke="#444444" stroke-width="1.2" marker-end="url(#ah-plain)"/>
<rect x="420.9" y="316.0" width="78.2" height="16.0" fill="#FFFFFF" fill-opacity="0.92"/>
<text font-family="Helvetica, Arial, sans-serif" font-size="10" fill="#444444" text-anchor="middle"><tspan x="460.0" y="326.5">cw_gen_finish</tspan></text>
<polyline points="930.0,176.0 945.0,176.0 945.0,168.0 960.0,168.0" fill="none" stroke="#444444" stroke-width="1.2" marker-end="url(#ah-plain)"/>
<rect x="924.8" y="164.0" width="40.4" height="16.0" fill="#FFFFFF" fill-opacity="0.92"/>
<text font-family="Helvetica, Arial, sans-serif" font-size="10" fill="#444444" text-anchor="middle"><tspan x="945.0" y="174.5">base_q</tspan></text>
<polyline points="1090.0,210.0 1090.0,230.0 1050.0,230.0 1050.0,250.0" fill="none" stroke="#8A6D00" stroke-width="1.3" marker-end="url(#ah-mem)"/>
<rect x="1020.1" y="222.0" width="99.8" height="16.0" fill="#FFFFFF" fill-opacity="0.92"/>
<text font-family="Helvetica, Arial, sans-serif" font-size="10" fill="#8A6D00" text-anchor="middle"><tspan x="1070.0" y="232.5">en = active, addr</tspan></text>
<polyline points="1140.0,280.0 1150.0,280.0 1160.0,280.0" fill="none" stroke="#8A6D00" stroke-width="1.3" marker-end="url(#ah-mem)"/>
<polyline points="1050.0,310.0 1050.0,470.0 220.0,470.0 220.0,440.0" fill="none" stroke="#1F3A93" stroke-width="2.5" marker-end="url(#ah-bus)"/>
<rect x="623.1" y="450.0" width="153.8" height="40.0" fill="#FFFFFF" fill-opacity="0.92"/>
<text font-family="Helvetica, Arial, sans-serif" font-size="10" fill="#1F3A93" text-anchor="middle"><tspan x="700.0" y="460.5">out_meas = meas_data</tspan><tspan x="700.0" y="473.0">out_meas_valid = valid_data</tspan><tspan x="700.0" y="485.5">out_meas_finish</tspan></text>
<polyline points="780.0,360.0 780.0,455.0 168.0,455.0 168.0,440.0" fill="none" stroke="#444444" stroke-width="1.2" marker-end="url(#ah-plain)"/>
</svg>